<mxfile host="app.diagrams.net" modified="2023-07-30T11:16:22.337Z" agent="Mozilla/5.0 (Macintosh; Intel Mac OS X 10_15_7) AppleWebKit/537.36 (KHTML, like Gecko) Chrome/115.0.0.0 Safari/537.36" etag="urotNTMfHTZzvQ03LubD" version="21.6.6" type="github">
  <diagram name="페이지-1" id="8bodRpc64FzUznBAYuVK">
    <mxGraphModel dx="2044" dy="2151" grid="0" gridSize="10" guides="1" tooltips="1" connect="1" arrows="1" fold="1" page="0" pageScale="1" pageWidth="827" pageHeight="1169" math="0" shadow="0">
      <root>
        <mxCell id="0" />
        <mxCell id="1" parent="0" />
        <mxCell id="tBY1qBdzBAZoHcjPw5S8-31" style="edgeStyle=none;curved=1;rounded=0;orthogonalLoop=1;jettySize=auto;html=1;exitX=0.5;exitY=1;exitDx=0;exitDy=0;fontSize=12;startSize=8;endSize=8;" edge="1" parent="1" source="tBY1qBdzBAZoHcjPw5S8-4" target="tBY1qBdzBAZoHcjPw5S8-7">
          <mxGeometry relative="1" as="geometry" />
        </mxCell>
        <mxCell id="tBY1qBdzBAZoHcjPw5S8-4" value="MyBatis" style="ellipse;whiteSpace=wrap;html=1;fontSize=16;" vertex="1" parent="1">
          <mxGeometry x="-168" y="-937" width="80" height="80" as="geometry" />
        </mxCell>
        <mxCell id="tBY1qBdzBAZoHcjPw5S8-29" style="edgeStyle=none;curved=1;rounded=0;orthogonalLoop=1;jettySize=auto;html=1;exitX=0.5;exitY=1;exitDx=0;exitDy=0;entryX=0.5;entryY=0;entryDx=0;entryDy=0;fontSize=12;startSize=8;endSize=8;" edge="1" parent="1" source="tBY1qBdzBAZoHcjPw5S8-6" target="tBY1qBdzBAZoHcjPw5S8-27">
          <mxGeometry relative="1" as="geometry" />
        </mxCell>
        <mxCell id="tBY1qBdzBAZoHcjPw5S8-6" value="JPA" style="ellipse;whiteSpace=wrap;html=1;fontSize=16;" vertex="1" parent="1">
          <mxGeometry x="-39" y="-937" width="80" height="80" as="geometry" />
        </mxCell>
        <mxCell id="tBY1qBdzBAZoHcjPw5S8-7" value="JDBC" style="ellipse;whiteSpace=wrap;html=1;fontSize=16;" vertex="1" parent="1">
          <mxGeometry x="-168" y="-717" width="80" height="80" as="geometry" />
        </mxCell>
        <mxCell id="tBY1qBdzBAZoHcjPw5S8-28" style="edgeStyle=none;curved=1;rounded=0;orthogonalLoop=1;jettySize=auto;html=1;exitX=1;exitY=1;exitDx=0;exitDy=0;entryX=0;entryY=0;entryDx=0;entryDy=0;fontSize=12;startSize=8;endSize=8;" edge="1" parent="1" source="tBY1qBdzBAZoHcjPw5S8-8" target="tBY1qBdzBAZoHcjPw5S8-23">
          <mxGeometry relative="1" as="geometry" />
        </mxCell>
        <mxCell id="tBY1qBdzBAZoHcjPw5S8-8" value="ORM" style="ellipse;whiteSpace=wrap;html=1;fontSize=16;" vertex="1" parent="1">
          <mxGeometry x="142" y="-1098" width="80" height="80" as="geometry" />
        </mxCell>
        <mxCell id="tBY1qBdzBAZoHcjPw5S8-23" value="객체 관계 매핑" style="ellipse;whiteSpace=wrap;html=1;fontSize=16;" vertex="1" parent="1">
          <mxGeometry x="264" y="-982" width="80" height="80" as="geometry" />
        </mxCell>
        <mxCell id="tBY1qBdzBAZoHcjPw5S8-30" style="edgeStyle=none;curved=1;rounded=0;orthogonalLoop=1;jettySize=auto;html=1;exitX=0.5;exitY=1;exitDx=0;exitDy=0;entryX=1;entryY=0;entryDx=0;entryDy=0;fontSize=12;startSize=8;endSize=8;" edge="1" parent="1" source="tBY1qBdzBAZoHcjPw5S8-27" target="tBY1qBdzBAZoHcjPw5S8-7">
          <mxGeometry relative="1" as="geometry" />
        </mxCell>
        <mxCell id="tBY1qBdzBAZoHcjPw5S8-27" value="하이버네이트" style="ellipse;whiteSpace=wrap;html=1;fontSize=16;" vertex="1" parent="1">
          <mxGeometry x="-41" y="-831" width="80" height="80" as="geometry" />
        </mxCell>
      </root>
    </mxGraphModel>
  </diagram>
</mxfile>
